<svg width="27" height="20" viewBox="0 0 27 20" fill="none" xmlns="http://www.w3.org/2000/svg">
<g clip-path="url(#clip0_13_10004)">
<path fill-rule="evenodd" clip-rule="evenodd" d="M3.05821 3.10129H25.0727C25.3956 3.10129 25.7052 2.97303 25.9335 2.74473C26.1618 2.51642 26.2901 2.20677 26.2901 1.8839C26.2901 1.56102 26.1618 1.25137 25.9335 1.02306C25.7052 0.794757 25.3956 0.666504 25.0727 0.666504H3.05821C2.73534 0.666504 2.42569 0.794757 2.19738 1.02306C1.96908 1.25137 1.84082 1.56102 1.84082 1.8839C1.84082 2.20677 1.96908 2.51642 2.19738 2.74473C2.42569 2.97303 2.73534 3.10129 3.05821 3.10129ZM25.0727 8.78245H7.72487C7.402 8.78245 7.09235 8.9107 6.86405 9.139C6.63574 9.36731 6.50748 9.67696 6.50748 9.99984C6.50748 10.3227 6.63574 10.6324 6.86405 10.8607C7.09235 11.089 7.402 11.2172 7.72487 11.2172H25.0727C25.3956 11.2172 25.7052 11.089 25.9335 10.8607C26.1618 10.6324 26.2901 10.3227 26.2901 9.99984C26.2901 9.67696 26.1618 9.36731 25.9335 9.139C25.7052 8.9107 25.3956 8.78245 25.0727 8.78245ZM25.0727 16.8984H3.05821C2.73534 16.8984 2.42569 17.0266 2.19738 17.2549C1.96908 17.4833 1.84082 17.7929 1.84082 18.1158C1.84082 18.4387 1.96908 18.7483 2.19738 18.9766C2.42569 19.2049 2.73534 19.3332 3.05821 19.3332H25.0727C25.3956 19.3332 25.7052 19.2049 25.9335 18.9766C26.1618 18.7483 26.2901 18.4387 26.2901 18.1158C26.2901 17.7929 26.1618 17.4833 25.9335 17.2549C25.7052 17.0266 25.3956 16.8984 25.0727 16.8984Z" fill="white"/>
</g>
<defs>
<clipPath id="clip0_13_10004">
<rect width="26.7826" height="18.6667" fill="white" transform="translate(0.166992 0.666504)"/>
</clipPath>
</defs>
</svg>
